<svg width="96" height="96" viewBox="0 0 96 96" fill="none" xmlns="http://www.w3.org/2000/svg">
<path fill-rule="evenodd" clip-rule="evenodd" d="M79.58 20.686C62.595 -1.18405 20.13 -4.38205 3.67 28.16C-12.788 60.702 30.737 97.5059 58.872 87.3679C87.007 77.2309 96.565 42.556 79.58 20.686Z" fill="#EAEEF2"/>
<path fill-rule="evenodd" clip-rule="evenodd" d="M25 31.5H21C20.586 31.5 20.21 31.668 19.94 31.94C19.668 32.21 19.5 32.586 19.5 33V95.5H26.5V33C26.5 32.586 26.332 32.21 26.06 31.94C25.921 31.8005 25.7558 31.6897 25.5739 31.6142C25.392 31.5387 25.197 31.4999 25 31.5Z" fill="#D6DBE4" stroke="#BBC4D3"/>
<path fill-rule="evenodd" clip-rule="evenodd" d="M22 90H24C24.5304 90 25.0391 90.2107 25.4142 90.5858C25.7893 90.9609 26 91.4696 26 92V96H20V92C20 91.4696 20.2107 90.9609 20.5858 90.5858C20.9609 90.2107 21.4696 90 22 90Z" fill="#D6DBE4"/>
<path fill-rule="evenodd" clip-rule="evenodd" d="M78.394 44.5H13C12.31 44.5 11.685 44.78 11.232 45.232C10.9995 45.4639 10.8152 45.7395 10.6895 46.0429C10.5639 46.3464 10.4995 46.6716 10.5 47V77C10.5 77.69 10.78 78.315 11.232 78.768C11.4639 79.0005 11.7395 79.1848 12.0429 79.3105C12.3464 79.4361 12.6716 79.5005 13 79.5H78.394C78.8055 79.5 79.2107 79.3984 79.5735 79.2043C79.9364 79.0101 80.2457 78.7294 80.474 78.387L90.474 63.387C90.7483 62.9764 90.8946 62.4938 90.8946 62C90.8946 61.5062 90.7483 61.0236 90.474 60.613L80.474 45.613C80.2457 45.2706 79.9364 44.9899 79.5735 44.7957C79.2107 44.6016 78.8055 44.5 78.394 44.5Z" fill="white" stroke="#BBC4D3"/>
<path d="M23 37.5C26.5899 37.5 29.5 34.5899 29.5 31C29.5 27.4101 26.5899 24.5 23 24.5C19.4101 24.5 16.5 27.4101 16.5 31C16.5 34.5899 19.4101 37.5 23 37.5Z" fill="#5C9FFF" stroke="#164798" stroke-linecap="round"/>
<path fill-rule="evenodd" clip-rule="evenodd" d="M64.5 53.5H59.5V59.5H53.5V64.5H59.5V70.5H64.5V64.5H70.5V59.5H64.5V53.5Z" fill="#5C9FFF" stroke="#164798" stroke-linecap="round"/>
<path d="M19 69.5H29M19 54.5H43H19ZM19 59.5H43H19ZM19 64.5H43H19Z" stroke="#BBC4D3"/>
</svg>
